<svg width="63" height="34" viewBox="0 0 63 34" fill="none" xmlns="http://www.w3.org/2000/svg">
<path d="M0.24 9.576C0.24 15.432 3.408 18.24 10.8 18.24C17.544 18.24 21.024 15.864 21.288 10.536H14.904C14.664 12.144 13.44 12.96 10.8 12.96C7.128 12.96 6.48 11.376 6.48 9.576C6.48 7.8 7.104 6.24 10.8 6.24C13.44 6.24 14.664 7.032 14.904 8.616H21.288C21.024 3.312 17.52 0.959999 10.8 0.959999C3.408 0.959999 0.24 3.744 0.24 9.576ZM32.3391 18.24C39.7071 18.24 42.8991 15.408 42.8991 9.576C42.8991 3.768 39.7071 0.959999 32.3391 0.959999C24.9471 0.959999 21.7791 3.744 21.7791 9.576C21.7791 15.432 24.9471 18.24 32.3391 18.24ZM32.3391 12.96C28.6671 12.96 28.0191 11.376 28.0191 9.576C28.0191 7.8 28.6431 6.24 32.3391 6.24C36.0351 6.24 36.6591 7.824 36.6591 9.576C36.6591 11.352 36.0111 12.96 32.3391 12.96ZM6.72 28.72V17.2H0.48V34H17.76V28.72H6.72ZM34.56 34H41.424L34.464 17.2H25.2L18.24 34H25.104L26.256 30.976H33.408L34.56 34ZM27.888 26.656L29.832 21.52L31.776 26.656H27.888ZM60.2295 24.616C61.0455 23.656 61.5495 22.552 61.5495 21.472C61.5495 18.928 60.3735 17.2 56.5575 17.2H41.9175V34H57.2775C61.0935 34 62.7495 31.792 62.7495 29.032C62.7495 27.208 61.6935 25.672 60.2295 24.616ZM48.1575 21.28H53.9175C54.5415 21.28 55.3095 21.28 55.3095 22.192C55.3095 23.104 54.5415 23.104 53.9175 23.104H48.1575V21.28ZM55.1175 29.44H48.1575V27.664H55.1175C55.7415 27.664 56.5095 27.664 56.5095 28.552C56.5095 29.44 55.7415 29.44 55.1175 29.44Z" fill="white"/>
</svg>
